<svg id="Ebene_1" data-name="Ebene 1" xmlns="http://www.w3.org/2000/svg" viewBox="0 0 846.38 311.33"><path d="M110.84,255.42l55.92,55.92H300.34V0h-113V55.77L131.58,0H0V311.34H110.84Zm63.41,49.92L254.48,218,293,305.34Zm120.09-11.82-35.58-80.67L294.34,31.49ZM293.22,6,254.58,203,193.34,61.82V6ZM190.33,70l61.6,142L167.61,303.7,112,248.14ZM124.91,6,45.32,135,7.39,6ZM6,22.58,41.23,142.41,6,283.88Zm98.84,282.76h-98L45.48,150.17l59.36,100.28Zm-57-163,83-134.6,55.74,55.74-79,179.81Z" transform="translate(0 -0.01)"/><path d="M641,59.47,559.11,0H458L376.11,59.47l-31.26,96.21,31.26,96.2L458,311.34H559.11L641,251.88l31.25-96.2-31-95.28ZM557.16,6l77.6,56.38L577.38,205.9,463.5,6Zm-97.08,6.11L571.09,207,439,154ZM381.21,63.18l73.11-53.12L433.09,152.68h-81Zm0,185-29.08-89.49h80.65l22.16,143.06Zm57.93-87.6L571,213.41,460.94,301.29Zm115.3,144.77h-89l107.35-85.69Zm6.76-2.94,18.24-84.93L633,250.24Zm75.52-56.92-55.2-33.77L638.11,70.16l27.79,85.52Z" transform="translate(0 -0.01)"/><path d="M846.38,0h-131V311.34h131Zm-8.49,6L805.74,87.77,725.48,6ZM721.34,10.35l82.21,83.77L780.24,199l-58.9,25.77Zm0,221,54.07-23.66-54.07,89.84Zm2.3,74,59.12-98.22,55.66,98.22Zm116.74-8.7L786,200.7l21.62-97.25,32.75,83.82Zm0-125.86-30.32-77.6,30.32-77.11Z" transform="translate(0 -0.01)"/></svg>