<?xml version="1.0" encoding="UTF-8" standalone="no"?>
<!-- Generator: Adobe Illustrator 25.3.0, SVG Export Plug-In . SVG Version: 6.00 Build 0)  -->

<svg
   xmlns:dc="http://purl.org/dc/elements/1.1/"
   xmlns:cc="http://creativecommons.org/ns#"
   xmlns:rdf="http://www.w3.org/1999/02/22-rdf-syntax-ns#"
   xmlns:svg="http://www.w3.org/2000/svg"
   xmlns="http://www.w3.org/2000/svg"
   xmlns:sodipodi="http://sodipodi.sourceforge.net/DTD/sodipodi-0.dtd"
   xmlns:inkscape="http://www.inkscape.org/namespaces/inkscape"
   version="1.1"
   id="Layer_1"
   x="0px"
   y="0px"
   viewBox="0 0 850.99998 389.39999"
   xml:space="preserve"
   sodipodi:docname="noi-black.svg"
   width="851"
   height="389.39999"
   inkscape:version="0.92.5 (2060ec1f9f, 2020-04-08)"><metadata
   id="metadata115"><rdf:RDF><cc:Work
       rdf:about=""><dc:format>image/svg+xml</dc:format><dc:type
         rdf:resource="http://purl.org/dc/dcmitype/StillImage" /><dc:title></dc:title></cc:Work></rdf:RDF></metadata><defs
   id="defs113" /><sodipodi:namedview
   pagecolor="#ffffff"
   bordercolor="#666666"
   borderopacity="1"
   objecttolerance="10"
   gridtolerance="10"
   guidetolerance="10"
   inkscape:pageopacity="0"
   inkscape:pageshadow="2"
   inkscape:window-width="1920"
   inkscape:window-height="1043"
   id="namedview111"
   showgrid="false"
   fit-margin-top="0"
   fit-margin-left="0"
   fit-margin-right="0"
   fit-margin-bottom="0"
   inkscape:zoom="0.31434006"
   inkscape:cx="-153.74078"
   inkscape:cy="195.45"
   inkscape:window-x="1080"
   inkscape:window-y="0"
   inkscape:window-maximized="1"
   inkscape:current-layer="Layer_1" />
<style
   type="text/css"
   id="style2">
	.st0{display:none;}
	.st1{display:inline;fill:#101416;}
	.st2{font-family:'KievitOT-Regular';}
	.st3{font-size:11.7739px;}
	.st4{display:inline;}
	.st5{fill:#9EDBF5;}
	.st6{fill:#101416;}
</style>
<g
   id="Ebene_1"
   transform="translate(-126.7,-125.8)">
	<path
   d="m 235.5,377.8 57.3,57.3 H 425 V 125.8 H 314 V 183 L 256.8,125.8 H 126.7 v 309.3 h 108.8 z m 62.2,53.4 82.8,-90.1 39.7,90.1 z M 421,423.1 383.4,337.8 421,146 Z M 420.1,129.8 380.6,331.1 318,186.9 v -57 z M 316,192.3 378.8,337 293.3,430 236.5,373.2 Z M 252.4,129.8 170.7,262.3 131.8,129.8 Z M 130.7,140.5 168,267.2 130.7,416.8 Z M 231.5,431.2 H 131.2 L 170.7,272.4 231.5,375 Z m 1.5,-61.5 -60.7,-102.5 84,-136.2 57.1,57.1 -80,182 z"
   id="path4"
   inkscape:connector-curvature="0" />
	<path
   d="m 686.5,435.2 81.3,-59.1 30.9,-95 0.2,-0.6 -30.9,-95 -0.2,-0.6 -80.8,-58.7 -0.5,-0.4 H 586 l -81.3,59.1 -31.1,95.6 31.1,95.6 80.8,58.7 0.5,0.4 z m -3.6,-4 H 590.3 L 702.1,342 Z m 4.5,-1.6 19.1,-88.9 56,34.3 z M 794.6,280.5 765,371.8 708,336.9 765.9,192 Z M 685.2,129.8 763.7,186.8 705.2,333 589.5,129.8 Z m -98,4.1 113.9,199.9 -135.5,-54.3 z m -79.2,53.5 75.3,-54.7 -21.7,145.8 h -83.2 z m 0,186.2 -29.6,-91.1 h 82.9 L 584,428.8 Z m 57.6,-89.8 135.1,54.1 -112.8,90 z"
   id="path6"
   inkscape:connector-curvature="0" />
	<path
   d="m 977.7,125.8 h -129 v 309.3 h 129 z m -6,4 -33.3,84.6 -83,-84.6 z m -119.1,2.9 84.3,85.9 -23.5,106 -60.8,26.6 z m 0,222.8 57.5,-25.2 -57.5,95.7 z m 1.6,75.7 60.9,-101.2 57.3,101.2 z m 119.5,-5.9 -56.4,-99.6 22.4,-100.8 34,87.1 z m 0,-124.4 -32.4,-82.9 32.4,-82.4 z"
   id="path8"
   inkscape:connector-curvature="0" />
	<polygon
   points="177.6,493.2 165.1,493.2 165.1,482.2 179.3,482.2 179.3,478.1 160.2,478.1 160.2,514.4 179.7,514.4 179.7,510.3 165.1,510.3 165.1,497.3 177.6,497.3 "
   id="polygon10" />
	<polygon
   points="365.7,495.4 365.7,478.1 360.7,478.1 360.7,514.4 365.7,514.4 365.7,495.6 380.5,514.4 386.6,514.4 371.2,495.1 385.6,478.1 380,478.1 "
   id="polygon12" />
	<polygon
   points="518,514.4 522.9,514.4 522.9,482.2 533.2,482.2 533.2,478.1 507.7,478.1 507.7,482.2 518,482.2 "
   id="polygon14" />
	<rect
   x="540.40002"
   y="478.10001"
   width="5"
   height="36.400002"
   id="rect16" />
	<rect
   x="900.29999"
   y="478.10001"
   width="5"
   height="36.400002"
   id="rect18" />
	<polygon
   points="756,514.4 761,514.4 761,482.2 771.3,482.2 771.3,478.1 745.8,478.1 745.8,482.2 756,482.2 "
   id="polygon20" />
	<polygon
   points="137.2,514.4 142.2,514.4 142.2,482.2 152.5,482.2 152.5,478.1 127,478.1 127,482.2 137.2,482.2 "
   id="polygon22" />
	<polygon
   points="227.9,478.1 223,478.1 223,514.4 227.9,514.4 227.9,497.4 247.6,497.4 247.6,514.4 252.6,514.4 252.6,478.1 247.6,478.1 247.6,493.2 227.9,493.2 "
   id="polygon24" />
	<path
   d="m 204,510.9 c -8.7,0 -12.8,-7.2 -12.8,-14.9 0,-7.6 4.3,-14.5 12.7,-14.5 3.4,0 6,0.9 8,2.4 l 2.4,-3.7 c -2.7,-1.7 -5.7,-2.8 -10.3,-2.8 -11.4,0 -18,8.9 -18,18.7 0,9.8 6.4,18.9 17.9,18.9 5.1,0 9.2,-2 11.1,-3.7 l -2.2,-3.5 c -2.1,1.8 -4.9,3.1 -8.8,3.1"
   id="path26"
   inkscape:connector-curvature="0" />
	<path
   d="m 273.8,478.1 h -9.7 v 36.4 h 5 v -14.4 h 4 c 8.6,0 13.7,-4 13.7,-11.3 0,-7.2 -5.6,-10.7 -13,-10.7 m -0.6,17.9 h -4.1 v -13.9 h 4.3 c 6.1,0 8.4,2.7 8.4,6.8 0,4.7 -2.6,7.1 -8.6,7.1"
   id="path28"
   inkscape:connector-curvature="0" />
	<path
   d="m 302.1,478.1 -13.9,36.4 h 4.9 l 3.1,-8.6 h 16.2 l 3.2,8.6 h 5.4 l -14,-36.4 z m -4.4,23.7 4.4,-11.7 c 1,-2.8 1.6,-4.6 2.1,-6.3 h 0.1 c 0.5,1.5 1,3.2 2.2,6.3 l 4.3,11.7 z"
   id="path30"
   inkscape:connector-curvature="0" />
	<path
   d="m 342.4,499.2 c 4.8,-1.6 7.5,-5.1 7.5,-10.4 0,-7.2 -5.6,-10.7 -13,-10.7 h -9.7 v 36.4 h 5 V 500 c 0,0 3,0 3.8,0 0.9,0 1.2,0.3 1.5,0.4 1,0.7 2.2,2.2 4.6,5.6 l 5.8,8.4 h 5.7 l -7.9,-11.2 c -1.6,-2.1 -2.6,-3.3 -3.3,-4 m -6.1,-3.2 h -4.1 v -13.9 h 4.3 c 6.1,0 8.4,2.7 8.4,6.8 -0.1,4.7 -2.6,7.1 -8.6,7.1"
   id="path32"
   inkscape:connector-curvature="0" />
	<path
   d="m 419.2,493.3 c -3.7,-1.7 -6.6,-3.2 -6.6,-6.7 0,-3.2 2.6,-5.1 6.1,-5.1 3.7,0 6.2,1.5 7.4,2.5 l 2.3,-3.6 c -1.3,-1 -4.3,-2.9 -9.8,-2.9 -5.7,0 -10.8,3.4 -10.8,9.4 0,5.8 3.9,8.2 8.3,10.4 4.2,2.1 8.3,3.8 8.3,7.9 0,3.1 -2.8,5.8 -7.1,5.8 -4.8,0 -7.4,-2.3 -8.2,-3.1 l -2.4,3.5 c 1.4,1.3 4.9,3.7 10.5,3.7 7.3,0 12.1,-4.1 12.1,-10 0,-7 -5.3,-9.5 -10.1,-11.8"
   id="path34"
   inkscape:connector-curvature="0" />
	<path
   d="m 446.4,475.2 c 1.7,0 3.2,-1.4 3.2,-3.1 0,-1.7 -1.4,-3.1 -3.2,-3.1 -1.7,0 -3.1,1.4 -3.1,3.1 0,1.7 1.4,3.1 3.1,3.1"
   id="path36"
   inkscape:connector-curvature="0" />
	<path
   d="m 456.8,475.2 c 1.8,0 3.2,-1.4 3.2,-3.1 0,-1.7 -1.4,-3.1 -3.2,-3.1 -1.7,0 -3.1,1.4 -3.1,3.1 0,1.7 1.5,3.1 3.1,3.1"
   id="path38"
   inkscape:connector-curvature="0" />
	<path
   d="m 461.3,500.9 c 0,6 -3,10 -9.3,10 -6.6,0 -9.6,-3.4 -9.6,-10.7 v -22.1 h -4.9 v 22.7 c 0,8.7 4.3,14.4 14.4,14.4 9.6,0 14,-5.6 14,-14.7 v -22.3 h -4.6 z"
   id="path40"
   inkscape:connector-curvature="0" />
	<path
   d="m 484.8,478.1 h -9 v 36.4 h 8.7 c 14.5,0 20.9,-8.1 20.9,-18.6 0.1,-10.6 -6.3,-17.8 -20.6,-17.8 m 0.2,32.3 h -4.2 v -28.3 h 3.9 c 10.6,0 15.6,4.3 15.6,13.8 0,9.5 -5.3,14.5 -15.3,14.5"
   id="path42"
   inkscape:connector-curvature="0" />
	<path
   d="m 572.1,499.2 c 4.8,-1.6 7.5,-5.1 7.5,-10.4 0,-7.2 -5.6,-10.7 -13,-10.7 h -9.7 v 36.4 h 5 V 500 c 0,0 3,0 3.8,0 0.9,0 1.2,0.3 1.5,0.4 1,0.7 2.2,2.2 4.6,5.6 l 5.8,8.4 h 5.7 l -7.9,-11.2 c -1.6,-2.1 -2.6,-3.3 -3.3,-4 m -6.2,-3.2 h -4.1 v -13.9 h 4.3 c 6.1,0 8.4,2.7 8.4,6.8 0,4.7 -2.5,7.1 -8.6,7.1"
   id="path44"
   inkscape:connector-curvature="0" />
	<polygon
   points="726.3,514.4 745.4,514.4 745.4,510.3 731.2,510.3 731.2,478.1 726.3,478.1 "
   id="polygon46" />
	<path
   d="m 699.7,478.1 -13.9,36.4 h 4.9 l 3.1,-8.6 H 710 l 3.2,8.6 h 5.4 l -14,-36.4 z m -4.3,23.7 4.4,-11.7 c 1,-2.8 1.6,-4.6 2.1,-6.3 h 0.1 c 0.5,1.5 1,3.2 2.2,6.3 l 4.3,11.7 z"
   id="path48"
   inkscape:connector-curvature="0" />
	<path
   d="m 603.8,477.4 c -11.4,0 -18,8.9 -18,18.9 0,9.9 6.7,18.8 18.1,18.8 11.4,0 18,-8.9 18,-18.9 0,-10 -6.7,-18.8 -18.1,-18.8 m 0,33.6 c -8.4,0 -12.8,-6.9 -12.8,-14.8 0,-7.9 4.5,-14.7 12.9,-14.7 8.4,0 12.7,6.9 12.7,14.8 0,7.9 -4.4,14.7 -12.8,14.7"
   id="path50"
   inkscape:connector-curvature="0" />
	<polygon
   points="680.4,478.1 676,478.1 662.8,514.4 667.3,514.4 "
   id="polygon52" />
	<polygon
   points="630.9,514.4 650,514.4 650,510.3 635.8,510.3 635.8,478.1 630.9,478.1 "
   id="polygon54" />
	<path
   d="m 871.4,478.1 h -9 v 36.4 h 8.7 c 14.5,0 20.9,-8.1 20.9,-18.6 0,-10.6 -6.3,-17.8 -20.6,-17.8 m 0.2,32.3 h -4.2 v -28.3 h 3.9 c 10.6,0 15.6,4.3 15.6,13.8 -0.1,9.5 -5.3,14.5 -15.3,14.5"
   id="path56"
   inkscape:connector-curvature="0" />
	<path
   d="m 791.3,477.4 c -11.4,0 -18,8.9 -18,18.9 0,9.9 6.7,18.8 18.1,18.8 11.4,0 18,-8.9 18,-18.9 0,-10 -6.7,-18.8 -18.1,-18.8 m 0,33.6 c -8.4,0 -12.8,-6.9 -12.8,-14.8 0,-7.9 4.5,-14.7 12.9,-14.7 8.4,0 12.7,6.9 12.7,14.8 0.1,7.9 -4.4,14.7 -12.8,14.7"
   id="path58"
   inkscape:connector-curvature="0" />
	<path
   d="m 836.4,478.1 -13.9,36.4 h 4.9 l 3.1,-8.6 h 16.2 l 3.2,8.6 h 5.4 l -14,-36.4 z m -4.3,23.7 4.4,-11.7 c 1,-2.8 1.6,-4.6 2.1,-6.3 h 0.1 c 0.5,1.5 1,3.2 2.2,6.3 l 4.3,11.7 z"
   id="path60"
   inkscape:connector-curvature="0" />
	<polygon
   points="972.9,497.3 972.9,493.2 960.4,493.2 960.4,482.2 974.7,482.2 974.7,478.1 955.5,478.1 955.5,514.4 975.1,514.4 975.1,510.3 960.4,510.3 960.4,497.3 "
   id="polygon62" />
	<path
   d="m 932.8,499.2 h 7.6 v 9.6 c -1.7,1.3 -4.7,2.1 -8.5,2.1 -9.1,0 -13.2,-7.2 -13.2,-14.9 0,-7.6 4.2,-14.5 13.3,-14.5 3.8,0 6.5,0.8 9.2,2.9 l 2.5,-3.7 c -2.9,-2.2 -6.6,-3.4 -11.5,-3.4 -11.9,0 -18.6,8.8 -18.6,18.7 0,9.8 6.6,18.9 18.3,18.9 6.2,0 10.8,-1.5 13.5,-3.7 V 495 h -12.5 z"
   id="path64"
   inkscape:connector-curvature="0" />
</g>
<g
   id="Schutzzone"
   class="st0"
   style="display:none"
   transform="translate(-126.7,-125.8)">
	<polygon
   class="st1"
   points="1037.1,260.5 1039,259.9 1039.7,259.9 1039.7,267.7 1038.8,267.7 1038.8,260.7 1037.3,261.2 "
   id="polygon67"
   style="display:inline;fill:#101416" />
	<text
   transform="translate(1040.856,267.7285)"
   class="st1 st2 st3"
   id="text69"
   style="font-size:11.77390003px;font-family:KievitOT-Regular;display:inline;fill:#101416"> </text>

	<text
   transform="translate(1042.3267,267.7285)"
   class="st1 st2 st3"
   id="text71"
   style="font-size:11.77390003px;font-family:KievitOT-Regular;display:inline;fill:#101416">i</text>

	<g
   class="st4"
   id="g107"
   style="display:inline">
		<rect
   x="978.20001"
   y="243.5"
   class="st5"
   width="125.7"
   height="39.599998"
   id="rect73"
   style="fill:#9edbf5" />
		<rect
   x="0.69999999"
   y="243.5"
   class="st5"
   width="125.7"
   height="39.599998"
   id="rect75"
   style="fill:#9edbf5" />
		<polygon
   class="st6"
   points="59.6,260.5 61.5,259.9 62.2,259.9 62.2,267.7 61.3,267.7 61.3,260.7 59.8,261.2 "
   id="polygon77"
   style="fill:#101416" />
		<text
   transform="translate(63.3613,267.7285)"
   class="st6 st2 st3"
   id="text79"
   style="font-size:11.77390003px;font-family:KievitOT-Regular;fill:#101416"> </text>

		<text
   transform="translate(64.8335,267.7285)"
   class="st6 st2 st3"
   id="text81"
   style="font-size:11.77390003px;font-family:KievitOT-Regular;fill:#101416">i</text>

		<rect
   x="610.09998"
   y="0.40000001"
   class="st5"
   width="39.599998"
   height="125.7"
   id="rect83"
   style="fill:#9edbf5" />
		<polygon
   class="st6"
   points="627.1,67.2 626.5,65.3 626.5,64.6 634.4,64.6 634.4,65.5 627.4,65.5 627.9,67 "
   id="polygon85"
   style="fill:#101416" />
		<text
   transform="rotate(-90,348.9095,-285.4845)"
   class="st6 st2 st3"
   id="text87"
   style="font-size:11.77390003px;font-family:KievitOT-Regular;fill:#101416"> </text>

		<text
   transform="rotate(-90,348.17365,-286.22035)"
   class="st6 st2 st3"
   id="text89"
   style="font-size:11.77390003px;font-family:KievitOT-Regular;fill:#101416">i</text>

		<rect
   x="610.09998"
   y="514.09998"
   class="st5"
   width="39.599998"
   height="125.7"
   id="rect91"
   style="fill:#9edbf5" />
		<polygon
   class="st6"
   points="627.1,580.9 626.5,579 626.5,578.3 634.4,578.3 634.4,579.2 627.4,579.2 627.9,580.7 "
   id="polygon93"
   style="fill:#101416" />
		<text
   transform="rotate(-90,605.7767,-28.6173)"
   class="st6 st2 st3"
   id="text95"
   style="font-size:11.77390003px;font-family:KievitOT-Regular;fill:#101416"> </text>

		<text
   transform="rotate(-90,605.0438,-29.3512)"
   class="st6 st2 st3"
   id="text97"
   style="font-size:11.77390003px;font-family:KievitOT-Regular;fill:#101416">i</text>

		<rect
   x="297.39999"
   y="435.79999"
   class="st5"
   width="57"
   height="41.900002"
   id="rect99"
   style="fill:#9edbf5" />
		<path
   class="st6"
   d="m 318.6,454.2 -1.5,0.5 -0.2,-0.7 1.9,-0.6 h 0.7 v 7.8 h -0.9 z m 5.7,-1.5 h 0.8 l -3.7,10.4 h -0.8 z m 1.6,8.6 0.1,-0.8 c 0.1,0 0.5,0.1 1,0.1 1.4,0 2.2,-0.6 2.2,-1.7 0,-1.2 -1.1,-1.6 -2.5,-1.6 v -0.6 c 1.2,0 2.3,-0.6 2.3,-1.6 0,-0.6 -0.5,-1 -1.3,-1 -0.8,0 -1.2,0.2 -1.6,0.6 l -0.4,-0.6 c 0.4,-0.4 1.1,-0.8 2.1,-0.8 1.4,0 2.1,0.8 2.1,1.8 0,1 -0.8,1.6 -1.7,1.9 v 0 c 1,0.1 2,0.9 2,2 0,1.6 -1.3,2.5 -3.1,2.5 -0.7,-0.1 -1.1,-0.2 -1.2,-0.2 z"
   id="path101"
   inkscape:connector-curvature="0"
   style="fill:#101416" />
		<text
   transform="translate(330.8476,461.2119)"
   class="st6 st2 st3"
   id="text103"
   style="font-size:11.77390003px;font-family:KievitOT-Regular;fill:#101416"> </text>

		<text
   transform="translate(332.3198,461.2119)"
   class="st6 st2 st3"
   id="text105"
   style="font-size:11.77390003px;font-family:KievitOT-Regular;fill:#101416">i</text>

	</g>
</g>
</svg>